<svg xmlns="http://www.w3.org/2000/svg" viewBox="0 0 500 175"><defs><style>.cls-1{fill:none;}.cls-2{fill:#ff0558;}</style></defs><g id="레이어_2" data-name="레이어 2"><g id="WATCHA_Logo"><rect class="cls-1" width="500" height="175"/><polygon class="cls-2" points="0 31 31.15 31 42.34 113.74 45.94 113.5 59 31 84 31 96.53 110.14 100.15 109.9 112 0 143 0 117.07 144.05 84.75 146.2 73.07 72.5 69.93 72.5 57.97 147.98 27.5 150 0 31"/><path class="cls-2" d="M153.16,31,133.07,144h24.2L160,125.74H182.9L185.57,144H210L189.68,31Zm9.89,74.19,7-47h3l6.88,47Z"/><path class="cls-2" d="M479.68,31H443.16L423.07,144h24.2L450,125.74H472.9L475.57,144H500Zm-26.63,74.19,7-47h3l6.88,47Z"/><path class="cls-2" d="M305,29.86c-22.27,0-32.94,12.1-32.94,30.82v53.64c0,18.72,10.67,30.82,32.94,30.82s32.94-12.1,32.94-30.82V94.92H313.18v21.69c0,5.93-2.27,8-8.18,8s-8.18-2.06-8.18-8V58.39c0-5.93,2.27-8,8.18-8s8.18,2.06,8.18,8V71.18h24.76V60.68C337.94,42,327.27,29.86,305,29.86Z"/><polygon class="cls-2" points="203.3 54.51 223.7 54.51 223.7 144 248.3 144 248.3 54.51 266.3 54.51 266.3 31 203.3 31 203.3 54.51"/><polygon class="cls-2" points="391.23 75.72 373.61 75.72 373.61 31 348.85 31 348.85 144 373.61 144 373.61 98.72 391.23 98.72 391.23 144 415.99 144 415.99 31 391.23 31 391.23 75.72"/></g></g></svg>